<svg width="1500" height="500" viewBox="0 0 1500 500" fill="none" xmlns="http://www.w3.org/2000/svg">
<rect width="1500" height="500" fill="white"/>
<g filter="url(#filter0_d_206_2)">
<path d="M309.013 355.792C287.729 374.833 261.451 387.403 233.269 392.024C205.087 396.644 176.171 393.124 149.921 381.876C123.671 370.628 101.178 352.12 85.0844 328.528C68.9912 304.935 59.9673 277.239 59.0735 248.695C58.1797 220.15 65.453 191.944 80.0385 167.391C94.6241 142.838 115.916 122.959 141.411 110.091C166.906 97.2225 195.544 91.8996 223.96 94.7479C252.376 97.5962 279.389 108.497 301.822 126.17L278.174 156.189C261.456 143.019 241.325 134.896 220.149 132.773C198.972 130.65 177.63 134.617 158.63 144.207C139.631 153.797 123.764 168.611 112.894 186.909C102.025 205.206 96.6042 226.227 97.2703 247.499C97.9364 268.771 104.661 289.411 116.654 306.992C128.648 324.574 145.41 338.367 164.973 346.749C184.535 355.131 206.084 357.755 227.086 354.312C248.088 350.868 267.671 341.501 283.533 327.311L309.013 355.792Z" fill="url(#paint0_linear_206_2)"/>
<path d="M309.013 355.792C287.729 374.833 261.451 387.403 233.269 392.024C205.087 396.644 176.171 393.124 149.921 381.876C123.671 370.628 101.178 352.12 85.0844 328.528C68.9912 304.935 59.9673 277.239 59.0735 248.695C58.1797 220.15 65.453 191.944 80.0385 167.391C94.6241 142.838 115.916 122.959 141.411 110.091C166.906 97.2225 195.544 91.8996 223.96 94.7479C252.376 97.5962 279.389 108.497 301.822 126.17L278.174 156.189C261.456 143.019 241.325 134.896 220.149 132.773C198.972 130.65 177.63 134.617 158.63 144.207C139.631 153.797 123.764 168.611 112.894 186.909C102.025 205.206 96.6042 226.227 97.2703 247.499C97.9364 268.771 104.661 289.411 116.654 306.992C128.648 324.574 145.41 338.367 164.973 346.749C184.535 355.131 206.084 357.755 227.086 354.312C248.088 350.868 267.671 341.501 283.533 327.311L309.013 355.792Z" stroke="black"/>
</g>
<g filter="url(#filter1_d_206_2)">
<path d="M298.621 244.34C298.621 293.182 259.027 332.776 210.185 332.776C161.344 332.776 121.75 293.182 121.75 244.34C121.75 195.499 161.344 155.905 210.185 155.905C259.027 155.905 298.621 195.499 298.621 244.34Z" fill="url(#paint1_linear_206_2)"/>
</g>
<g filter="url(#filter2_d_206_2)">
<path d="M352.224 198.944C352.224 190.069 354.144 182.176 357.984 175.264C361.824 168.267 367.157 162.848 373.984 159.008C380.896 155.083 388.704 153.12 397.408 153.12C408.075 153.12 417.205 155.936 424.8 161.568C432.395 167.2 437.472 174.88 440.032 184.608H415.968C414.176 180.853 411.616 177.995 408.288 176.032C405.045 174.069 401.333 173.088 397.152 173.088C390.411 173.088 384.949 175.435 380.768 180.128C376.587 184.821 374.496 191.093 374.496 198.944C374.496 206.795 376.587 213.067 380.768 217.76C384.949 222.453 390.411 224.8 397.152 224.8C401.333 224.8 405.045 223.819 408.288 221.856C411.616 219.893 414.176 217.035 415.968 213.28H440.032C437.472 223.008 432.395 230.688 424.8 236.32C417.205 241.867 408.075 244.64 397.408 244.64C388.704 244.64 380.896 242.72 373.984 238.88C367.157 234.955 361.824 229.536 357.984 222.624C354.144 215.712 352.224 207.819 352.224 198.944ZM485.948 245.024C478.951 245.024 472.636 243.531 467.004 240.544C461.457 237.557 457.063 233.291 453.82 227.744C450.663 222.197 449.084 215.712 449.084 208.288C449.084 200.949 450.705 194.507 453.948 188.96C457.191 183.328 461.628 179.019 467.26 176.032C472.892 173.045 479.207 171.552 486.204 171.552C493.201 171.552 499.516 173.045 505.148 176.032C510.78 179.019 515.217 183.328 518.46 188.96C521.703 194.507 523.324 200.949 523.324 208.288C523.324 215.627 521.66 222.112 518.332 227.744C515.089 233.291 510.609 237.557 504.892 240.544C499.26 243.531 492.945 245.024 485.948 245.024ZM485.948 226.08C490.129 226.08 493.671 224.544 496.572 221.472C499.559 218.4 501.052 214.005 501.052 208.288C501.052 202.571 499.601 198.176 496.7 195.104C493.884 192.032 490.385 190.496 486.204 190.496C481.937 190.496 478.396 192.032 475.58 195.104C472.764 198.091 471.356 202.485 471.356 208.288C471.356 214.005 472.721 218.4 475.452 221.472C478.268 224.544 481.767 226.08 485.948 226.08ZM530.584 208.16C530.584 200.821 531.949 194.379 534.68 188.832C537.496 183.285 541.293 179.019 546.072 176.032C550.851 173.045 556.184 171.552 562.072 171.552C566.765 171.552 571.032 172.533 574.872 174.496C578.797 176.459 581.869 179.104 584.088 182.432V149.28H605.976V244H584.088V233.76C582.04 237.173 579.096 239.904 575.256 241.952C571.501 244 567.107 245.024 562.072 245.024C556.184 245.024 550.851 243.531 546.072 240.544C541.293 237.472 537.496 233.163 534.68 227.616C531.949 221.984 530.584 215.499 530.584 208.16ZM584.088 208.288C584.088 202.827 582.552 198.517 579.48 195.36C576.493 192.203 572.824 190.624 568.472 190.624C564.12 190.624 560.408 192.203 557.336 195.36C554.349 198.432 552.856 202.699 552.856 208.16C552.856 213.621 554.349 217.973 557.336 221.216C560.408 224.373 564.12 225.952 568.472 225.952C572.824 225.952 576.493 224.373 579.48 221.216C582.552 218.059 584.088 213.749 584.088 208.288ZM689.139 207.136C689.139 209.184 689.011 211.317 688.755 213.536H639.219C639.56 217.973 640.968 221.387 643.443 223.776C646.003 226.08 649.118 227.232 652.787 227.232C658.248 227.232 662.046 224.928 664.179 220.32H687.475C686.28 225.013 684.104 229.237 680.947 232.992C677.875 236.747 673.992 239.691 669.299 241.824C664.606 243.957 659.358 245.024 653.555 245.024C646.558 245.024 640.328 243.531 634.867 240.544C629.406 237.557 625.139 233.291 622.067 227.744C618.995 222.197 617.459 215.712 617.459 208.288C617.459 200.864 618.952 194.379 621.939 188.832C625.011 183.285 629.278 179.019 634.739 176.032C640.2 173.045 646.472 171.552 653.555 171.552C660.467 171.552 666.611 173.003 671.987 175.904C677.363 178.805 681.544 182.944 684.531 188.32C687.603 193.696 689.139 199.968 689.139 207.136ZM666.739 201.376C666.739 197.621 665.459 194.635 662.899 192.416C660.339 190.197 657.139 189.088 653.299 189.088C649.63 189.088 646.515 190.155 643.955 192.288C641.48 194.421 639.944 197.451 639.347 201.376H666.739ZM830.339 172.576L811.011 244H786.819L775.555 197.664L763.907 244H739.843L720.387 172.576H742.275L752.387 223.648L764.419 172.576H787.587L799.747 223.392L809.731 172.576H830.339ZM849.694 165.152C845.854 165.152 842.697 164.043 840.222 161.824C837.833 159.52 836.638 156.704 836.638 153.376C836.638 149.963 837.833 147.147 840.222 144.928C842.697 142.624 845.854 141.472 849.694 141.472C853.449 141.472 856.521 142.624 858.91 144.928C861.385 147.147 862.622 149.963 862.622 153.376C862.622 156.704 861.385 159.52 858.91 161.824C856.521 164.043 853.449 165.152 849.694 165.152ZM860.574 172.576V244H838.686V172.576H860.574ZM916.244 225.44V244H905.108C897.172 244 890.985 242.08 886.548 238.24C882.111 234.315 879.892 227.957 879.892 219.168V190.752H871.188V172.576H879.892V155.168H901.78V172.576H916.116V190.752H901.78V219.424C901.78 221.557 902.292 223.093 903.316 224.032C904.34 224.971 906.047 225.44 908.436 225.44H916.244ZM972.34 171.808C980.532 171.808 987.103 174.539 992.052 180C997.001 185.376 999.476 192.8 999.476 202.272V244H977.716V205.216C977.716 200.437 976.479 196.725 974.004 194.08C971.529 191.435 968.201 190.112 964.02 190.112C959.839 190.112 956.511 191.435 954.036 194.08C951.561 196.725 950.324 200.437 950.324 205.216V244H928.436V149.28H950.324V182.176C952.543 179.019 955.572 176.501 959.412 174.624C963.252 172.747 967.561 171.808 972.34 171.808ZM1118.87 154.144L1087.76 214.304V244H1065.88V214.304L1034.77 154.144H1059.6L1077.01 191.776L1094.29 154.144H1118.87ZM1160.2 245.024C1153.2 245.024 1146.89 243.531 1141.25 240.544C1135.71 237.557 1131.31 233.291 1128.07 227.744C1124.91 222.197 1123.33 215.712 1123.33 208.288C1123.33 200.949 1124.96 194.507 1128.2 188.96C1131.44 183.328 1135.88 179.019 1141.51 176.032C1147.14 173.045 1153.46 171.552 1160.45 171.552C1167.45 171.552 1173.77 173.045 1179.4 176.032C1185.03 179.019 1189.47 183.328 1192.71 188.96C1195.95 194.507 1197.57 200.949 1197.57 208.288C1197.57 215.627 1195.91 222.112 1192.58 227.744C1189.34 233.291 1184.86 237.557 1179.14 240.544C1173.51 243.531 1167.2 245.024 1160.2 245.024ZM1160.2 226.08C1164.38 226.08 1167.92 224.544 1170.82 221.472C1173.81 218.4 1175.3 214.005 1175.3 208.288C1175.3 202.571 1173.85 198.176 1170.95 195.104C1168.13 192.032 1164.64 190.496 1160.45 190.496C1156.19 190.496 1152.65 192.032 1149.83 195.104C1147.01 198.091 1145.61 202.485 1145.61 208.288C1145.61 214.005 1146.97 218.4 1149.7 221.472C1152.52 224.544 1156.02 226.08 1160.2 226.08ZM1236.32 171.552C1241.36 171.552 1245.75 172.576 1249.51 174.624C1253.35 176.672 1256.29 179.36 1258.34 182.688V172.576H1280.23V243.872C1280.23 250.443 1278.9 256.373 1276.26 261.664C1273.7 267.04 1269.73 271.307 1264.35 274.464C1259.06 277.621 1252.45 279.2 1244.51 279.2C1233.93 279.2 1225.36 276.683 1218.79 271.648C1212.22 266.699 1208.46 259.957 1207.52 251.424H1229.15C1229.84 254.155 1231.46 256.288 1234.02 257.824C1236.58 259.445 1239.74 260.256 1243.49 260.256C1248.01 260.256 1251.6 258.933 1254.24 256.288C1256.97 253.728 1258.34 249.589 1258.34 243.872V233.76C1256.2 237.088 1253.26 239.819 1249.51 241.952C1245.75 244 1241.36 245.024 1236.32 245.024C1230.43 245.024 1225.1 243.531 1220.32 240.544C1215.54 237.472 1211.75 233.163 1208.93 227.616C1206.2 221.984 1204.83 215.499 1204.83 208.16C1204.83 200.821 1206.2 194.379 1208.93 188.832C1211.75 183.285 1215.54 179.019 1220.32 176.032C1225.1 173.045 1230.43 171.552 1236.32 171.552ZM1258.34 208.288C1258.34 202.827 1256.8 198.517 1253.73 195.36C1250.74 192.203 1247.07 190.624 1242.72 190.624C1238.37 190.624 1234.66 192.203 1231.59 195.36C1228.6 198.432 1227.11 202.699 1227.11 208.16C1227.11 213.621 1228.6 217.973 1231.59 221.216C1234.66 224.373 1238.37 225.952 1242.72 225.952C1247.07 225.952 1250.74 224.373 1253.73 221.216C1256.8 218.059 1258.34 213.749 1258.34 208.288ZM1291.71 208.16C1291.71 200.821 1293.07 194.379 1295.81 188.832C1298.62 183.285 1302.42 179.019 1307.2 176.032C1311.98 173.045 1317.31 171.552 1323.2 171.552C1328.23 171.552 1332.63 172.576 1336.38 174.624C1340.22 176.672 1343.17 179.36 1345.21 182.688V172.576H1367.1V244H1345.21V233.888C1343.08 237.216 1340.09 239.904 1336.25 241.952C1332.5 244 1328.1 245.024 1323.07 245.024C1317.27 245.024 1311.98 243.531 1307.2 240.544C1302.42 237.472 1298.62 233.163 1295.81 227.616C1293.07 221.984 1291.71 215.499 1291.71 208.16ZM1345.21 208.288C1345.21 202.827 1343.68 198.517 1340.61 195.36C1337.62 192.203 1333.95 190.624 1329.6 190.624C1325.25 190.624 1321.53 192.203 1318.46 195.36C1315.47 198.432 1313.98 202.699 1313.98 208.16C1313.98 213.621 1315.47 217.973 1318.46 221.216C1321.53 224.373 1325.25 225.952 1329.6 225.952C1333.95 225.952 1337.62 224.373 1340.61 221.216C1343.68 218.059 1345.21 213.749 1345.21 208.288Z" fill="url(#paint2_linear_206_2)"/>
</g>
<path d="M393.08 298.28C395.107 298.6 396.947 299.427 398.6 300.76C400.307 302.093 401.64 303.747 402.6 305.72C403.613 307.693 404.12 309.8 404.12 312.04C404.12 314.867 403.4 317.427 401.96 319.72C400.52 321.96 398.413 323.747 395.64 325.08C392.92 326.36 389.693 327 385.96 327H365.16V271.24H385.16C388.947 271.24 392.173 271.88 394.84 273.16C397.507 274.387 399.507 276.067 400.84 278.2C402.173 280.333 402.84 282.733 402.84 285.4C402.84 288.707 401.933 291.453 400.12 293.64C398.36 295.773 396.013 297.32 393.08 298.28ZM372.44 295.32H384.68C388.093 295.32 390.733 294.52 392.6 292.92C394.467 291.32 395.4 289.107 395.4 286.28C395.4 283.453 394.467 281.24 392.6 279.64C390.733 278.04 388.04 277.24 384.52 277.24H372.44V295.32ZM385.32 321C388.947 321 391.773 320.147 393.8 318.44C395.827 316.733 396.84 314.36 396.84 311.32C396.84 308.227 395.773 305.8 393.64 304.04C391.507 302.227 388.653 301.32 385.08 301.32H372.44V321H385.32ZM453.103 283.16V327H445.823V320.52C444.436 322.76 442.489 324.52 439.983 325.8C437.529 327.027 434.809 327.64 431.823 327.64C428.409 327.64 425.343 326.947 422.623 325.56C419.903 324.12 417.743 321.987 416.143 319.16C414.596 316.333 413.823 312.893 413.823 308.84V283.16H421.023V307.88C421.023 312.2 422.116 315.533 424.303 317.88C426.489 320.173 429.476 321.32 433.263 321.32C437.156 321.32 440.223 320.12 442.463 317.72C444.703 315.32 445.823 311.827 445.823 307.24V283.16H453.103ZM469.154 276.04C467.768 276.04 466.594 275.56 465.634 274.6C464.674 273.64 464.194 272.467 464.194 271.08C464.194 269.693 464.674 268.52 465.634 267.56C466.594 266.6 467.768 266.12 469.154 266.12C470.488 266.12 471.608 266.6 472.514 267.56C473.474 268.52 473.954 269.693 473.954 271.08C473.954 272.467 473.474 273.64 472.514 274.6C471.608 275.56 470.488 276.04 469.154 276.04ZM472.674 283.16V327H465.394V283.16H472.674ZM492.362 267.8V327H485.082V267.8H492.362ZM502.049 304.92C502.049 300.44 502.956 296.52 504.769 293.16C506.583 289.747 509.063 287.107 512.209 285.24C515.409 283.373 518.983 282.44 522.929 282.44C526.343 282.44 529.516 283.24 532.449 284.84C535.383 286.387 537.623 288.44 539.169 291V267.8H546.529V327H539.169V318.76C537.729 321.373 535.596 323.533 532.769 325.24C529.943 326.893 526.636 327.72 522.849 327.72C518.956 327.72 515.409 326.76 512.209 324.84C509.063 322.92 506.583 320.227 504.769 316.76C502.956 313.293 502.049 309.347 502.049 304.92ZM539.169 305C539.169 301.693 538.503 298.813 537.169 296.36C535.836 293.907 534.023 292.04 531.729 290.76C529.489 289.427 527.009 288.76 524.289 288.76C521.569 288.76 519.089 289.4 516.849 290.68C514.609 291.96 512.823 293.827 511.489 296.28C510.156 298.733 509.489 301.613 509.489 304.92C509.489 308.28 510.156 311.213 511.489 313.72C512.823 316.173 514.609 318.067 516.849 319.4C519.089 320.68 521.569 321.32 524.289 321.32C527.009 321.32 529.489 320.68 531.729 319.4C534.023 318.067 535.836 316.173 537.169 313.72C538.503 311.213 539.169 308.307 539.169 305ZM613.12 314.6H588.8L584.32 327H576.64L596.8 271.56H605.2L625.28 327H617.6L613.12 314.6ZM611.04 308.68L600.96 280.52L590.88 308.68H611.04ZM692.466 283.16L678.786 327H671.266L660.706 292.2L650.146 327H642.626L628.866 283.16H636.306L646.386 319.96L657.266 283.16H664.706L675.346 320.04L685.266 283.16H692.466ZM739.691 303.4C739.691 304.787 739.611 306.253 739.451 307.8H704.411C704.678 312.12 706.145 315.507 708.811 317.96C711.531 320.36 714.811 321.56 718.651 321.56C721.798 321.56 724.411 320.84 726.491 319.4C728.625 317.907 730.118 315.933 730.971 313.48H738.811C737.638 317.693 735.291 321.133 731.771 323.8C728.251 326.413 723.878 327.72 718.651 327.72C714.491 327.72 710.758 326.787 707.451 324.92C704.198 323.053 701.638 320.413 699.771 317C697.905 313.533 696.971 309.533 696.971 305C696.971 300.467 697.878 296.493 699.691 293.08C701.505 289.667 704.038 287.053 707.291 285.24C710.598 283.373 714.385 282.44 718.651 282.44C722.811 282.44 726.491 283.347 729.691 285.16C732.891 286.973 735.345 289.48 737.051 292.68C738.811 295.827 739.691 299.4 739.691 303.4ZM732.171 301.88C732.171 299.107 731.558 296.733 730.331 294.76C729.105 292.733 727.425 291.213 725.291 290.2C723.211 289.133 720.891 288.6 718.331 288.6C714.651 288.6 711.505 289.773 708.891 292.12C706.331 294.467 704.865 297.72 704.491 301.88H732.171ZM764.821 327.72C761.461 327.72 758.447 327.16 755.781 326.04C753.114 324.867 751.007 323.267 749.461 321.24C747.914 319.16 747.061 316.787 746.901 314.12H754.421C754.634 316.307 755.647 318.093 757.461 319.48C759.327 320.867 761.754 321.56 764.741 321.56C767.514 321.56 769.701 320.947 771.301 319.72C772.901 318.493 773.701 316.947 773.701 315.08C773.701 313.16 772.847 311.747 771.141 310.84C769.434 309.88 766.794 308.947 763.221 308.04C759.967 307.187 757.301 306.333 755.221 305.48C753.194 304.573 751.434 303.267 749.941 301.56C748.501 299.8 747.781 297.507 747.781 294.68C747.781 292.44 748.447 290.387 749.781 288.52C751.114 286.653 753.007 285.187 755.461 284.12C757.914 283 760.714 282.44 763.861 282.44C768.714 282.44 772.634 283.667 775.621 286.12C778.607 288.573 780.207 291.933 780.421 296.2H773.141C772.981 293.907 772.047 292.067 770.341 290.68C768.687 289.293 766.447 288.6 763.621 288.6C761.007 288.6 758.927 289.16 757.381 290.28C755.834 291.4 755.061 292.867 755.061 294.68C755.061 296.12 755.514 297.32 756.421 298.28C757.381 299.187 758.554 299.933 759.941 300.52C761.381 301.053 763.354 301.667 765.861 302.36C769.007 303.213 771.567 304.067 773.541 304.92C775.514 305.72 777.194 306.947 778.581 308.6C780.021 310.253 780.767 312.413 780.821 315.08C780.821 317.48 780.154 319.64 778.821 321.56C777.487 323.48 775.594 325 773.141 326.12C770.741 327.187 767.967 327.72 764.821 327.72ZM810.218 327.72C806.111 327.72 802.378 326.787 799.018 324.92C795.711 323.053 793.098 320.413 791.178 317C789.311 313.533 788.378 309.533 788.378 305C788.378 300.52 789.338 296.573 791.258 293.16C793.231 289.693 795.898 287.053 799.258 285.24C802.618 283.373 806.378 282.44 810.538 282.44C814.698 282.44 818.458 283.373 821.818 285.24C825.178 287.053 827.818 289.667 829.738 293.08C831.711 296.493 832.698 300.467 832.698 305C832.698 309.533 831.684 313.533 829.658 317C827.684 320.413 824.991 323.053 821.578 324.92C818.164 326.787 814.378 327.72 810.218 327.72ZM810.218 321.32C812.831 321.32 815.284 320.707 817.578 319.48C819.871 318.253 821.711 316.413 823.098 313.96C824.538 311.507 825.258 308.52 825.258 305C825.258 301.48 824.564 298.493 823.178 296.04C821.791 293.587 819.978 291.773 817.738 290.6C815.498 289.373 813.071 288.76 810.458 288.76C807.791 288.76 805.338 289.373 803.098 290.6C800.911 291.773 799.151 293.587 797.818 296.04C796.484 298.493 795.818 301.48 795.818 305C795.818 308.573 796.458 311.587 797.738 314.04C799.071 316.493 800.831 318.333 803.018 319.56C805.204 320.733 807.604 321.32 810.218 321.32ZM894.989 282.36C898.403 282.36 901.443 283.08 904.109 284.52C906.776 285.907 908.883 288.013 910.429 290.84C911.976 293.667 912.749 297.107 912.749 301.16V327H905.549V302.2C905.549 297.827 904.456 294.493 902.269 292.2C900.136 289.853 897.229 288.68 893.549 288.68C889.763 288.68 886.749 289.907 884.509 292.36C882.269 294.76 881.149 298.253 881.149 302.84V327H873.949V302.2C873.949 297.827 872.856 294.493 870.669 292.2C868.536 289.853 865.629 288.68 861.949 288.68C858.163 288.68 855.149 289.907 852.909 292.36C850.669 294.76 849.549 298.253 849.549 302.84V327H842.269V283.16H849.549V289.48C850.989 287.187 852.909 285.427 855.309 284.2C857.763 282.973 860.456 282.36 863.389 282.36C867.069 282.36 870.323 283.187 873.149 284.84C875.976 286.493 878.083 288.92 879.469 292.12C880.696 289.027 882.723 286.627 885.549 284.92C888.376 283.213 891.523 282.36 894.989 282.36ZM964.691 303.4C964.691 304.787 964.611 306.253 964.451 307.8H929.411C929.678 312.12 931.145 315.507 933.811 317.96C936.531 320.36 939.811 321.56 943.651 321.56C946.798 321.56 949.411 320.84 951.491 319.4C953.625 317.907 955.118 315.933 955.971 313.48H963.811C962.638 317.693 960.291 321.133 956.771 323.8C953.251 326.413 948.878 327.72 943.651 327.72C939.491 327.72 935.758 326.787 932.451 324.92C929.198 323.053 926.638 320.413 924.771 317C922.905 313.533 921.971 309.533 921.971 305C921.971 300.467 922.878 296.493 924.691 293.08C926.505 289.667 929.038 287.053 932.291 285.24C935.598 283.373 939.385 282.44 943.651 282.44C947.811 282.44 951.491 283.347 954.691 285.16C957.891 286.973 960.345 289.48 962.051 292.68C963.811 295.827 964.691 299.4 964.691 303.4ZM957.171 301.88C957.171 299.107 956.558 296.733 955.331 294.76C954.105 292.733 952.425 291.213 950.291 290.2C948.211 289.133 945.891 288.6 943.331 288.6C939.651 288.6 936.505 289.773 933.891 292.12C931.331 294.467 929.865 297.72 929.491 301.88H957.171ZM1028.59 314.6H1004.27L999.789 327H992.109L1012.27 271.56H1020.67L1040.75 327H1033.07L1028.59 314.6ZM1026.51 308.68L1016.43 280.52L1006.35 308.68H1026.51ZM1056.82 291.24C1058.26 288.733 1060.39 286.653 1063.22 285C1066.1 283.293 1069.43 282.44 1073.22 282.44C1077.11 282.44 1080.63 283.373 1083.77 285.24C1086.97 287.107 1089.48 289.747 1091.3 293.16C1093.11 296.52 1094.02 300.44 1094.02 304.92C1094.02 309.347 1093.11 313.293 1091.3 316.76C1089.48 320.227 1086.97 322.92 1083.77 324.84C1080.63 326.76 1077.11 327.72 1073.22 327.72C1069.48 327.72 1066.18 326.893 1063.3 325.24C1060.47 323.533 1058.31 321.427 1056.82 318.92V347.8H1049.54V283.16H1056.82V291.24ZM1086.58 304.92C1086.58 301.613 1085.91 298.733 1084.58 296.28C1083.24 293.827 1081.43 291.96 1079.14 290.68C1076.9 289.4 1074.42 288.76 1071.7 288.76C1069.03 288.76 1066.55 289.427 1064.26 290.76C1062.02 292.04 1060.2 293.933 1058.82 296.44C1057.48 298.893 1056.82 301.747 1056.82 305C1056.82 308.307 1057.48 311.213 1058.82 313.72C1060.2 316.173 1062.02 318.067 1064.26 319.4C1066.55 320.68 1069.03 321.32 1071.7 321.32C1074.42 321.32 1076.9 320.68 1079.14 319.4C1081.43 318.067 1083.24 316.173 1084.58 313.72C1085.91 311.213 1086.58 308.28 1086.58 304.92ZM1110.88 291.24C1112.32 288.733 1114.45 286.653 1117.28 285C1120.16 283.293 1123.49 282.44 1127.28 282.44C1131.17 282.44 1134.69 283.373 1137.84 285.24C1141.04 287.107 1143.54 289.747 1145.36 293.16C1147.17 296.52 1148.08 300.44 1148.08 304.92C1148.08 309.347 1147.17 313.293 1145.36 316.76C1143.54 320.227 1141.04 322.92 1137.84 324.84C1134.69 326.76 1131.17 327.72 1127.28 327.72C1123.54 327.72 1120.24 326.893 1117.36 325.24C1114.53 323.533 1112.37 321.427 1110.88 318.92V347.8H1103.6V283.16H1110.88V291.24ZM1140.64 304.92C1140.64 301.613 1139.97 298.733 1138.64 296.28C1137.3 293.827 1135.49 291.96 1133.2 290.68C1130.96 289.4 1128.48 288.76 1125.76 288.76C1123.09 288.76 1120.61 289.427 1118.32 290.76C1116.08 292.04 1114.26 293.933 1112.88 296.44C1111.54 298.893 1110.88 301.747 1110.88 305C1110.88 308.307 1111.54 311.213 1112.88 313.72C1114.26 316.173 1116.08 318.067 1118.32 319.4C1120.61 320.68 1123.09 321.32 1125.76 321.32C1128.48 321.32 1130.96 320.68 1133.2 319.4C1135.49 318.067 1137.3 316.173 1138.64 313.72C1139.97 311.213 1140.64 308.28 1140.64 304.92ZM1173.18 327.72C1169.82 327.72 1166.81 327.16 1164.14 326.04C1161.47 324.867 1159.37 323.267 1157.82 321.24C1156.27 319.16 1155.42 316.787 1155.26 314.12H1162.78C1162.99 316.307 1164.01 318.093 1165.82 319.48C1167.69 320.867 1170.11 321.56 1173.1 321.56C1175.87 321.56 1178.06 320.947 1179.66 319.72C1181.26 318.493 1182.06 316.947 1182.06 315.08C1182.06 313.16 1181.21 311.747 1179.5 310.84C1177.79 309.88 1175.15 308.947 1171.58 308.04C1168.33 307.187 1165.66 306.333 1163.58 305.48C1161.55 304.573 1159.79 303.267 1158.3 301.56C1156.86 299.8 1156.14 297.507 1156.14 294.68C1156.14 292.44 1156.81 290.387 1158.14 288.52C1159.47 286.653 1161.37 285.187 1163.82 284.12C1166.27 283 1169.07 282.44 1172.22 282.44C1177.07 282.44 1180.99 283.667 1183.98 286.12C1186.97 288.573 1188.57 291.933 1188.78 296.2H1181.5C1181.34 293.907 1180.41 292.067 1178.7 290.68C1177.05 289.293 1174.81 288.6 1171.98 288.6C1169.37 288.6 1167.29 289.16 1165.74 290.28C1164.19 291.4 1163.42 292.867 1163.42 294.68C1163.42 296.12 1163.87 297.32 1164.78 298.28C1165.74 299.187 1166.91 299.933 1168.3 300.52C1169.74 301.053 1171.71 301.667 1174.22 302.36C1177.37 303.213 1179.93 304.067 1181.9 304.92C1183.87 305.72 1185.55 306.947 1186.94 308.6C1188.38 310.253 1189.13 312.413 1189.18 315.08C1189.18 317.48 1188.51 319.64 1187.18 321.56C1185.85 323.48 1183.95 325 1181.5 326.12C1179.1 327.187 1176.33 327.72 1173.18 327.72Z" fill="url(#paint3_linear_206_2)"/>
<defs>
<filter id="filter0_d_206_2" x="55" y="94" width="258.013" height="308" filterUnits="userSpaceOnUse" color-interpolation-filters="sRGB">
<feFlood flood-opacity="0" result="BackgroundImageFix"/>
<feColorMatrix in="SourceAlpha" type="matrix" values="0 0 0 0 0 0 0 0 0 0 0 0 0 0 0 0 0 0 127 0" result="hardAlpha"/>
<feOffset dy="4"/>
<feGaussianBlur stdDeviation="2"/>
<feComposite in2="hardAlpha" operator="out"/>
<feColorMatrix type="matrix" values="0 0 0 0 0 0 0 0 0 0 0 0 0 0 0 0 0 0 0.25 0"/>
<feBlend mode="normal" in2="BackgroundImageFix" result="effect1_dropShadow_206_2"/>
<feBlend mode="normal" in="SourceGraphic" in2="effect1_dropShadow_206_2" result="shape"/>
</filter>
<filter id="filter1_d_206_2" x="117.75" y="155.905" width="184.871" height="184.871" filterUnits="userSpaceOnUse" color-interpolation-filters="sRGB">
<feFlood flood-opacity="0" result="BackgroundImageFix"/>
<feColorMatrix in="SourceAlpha" type="matrix" values="0 0 0 0 0 0 0 0 0 0 0 0 0 0 0 0 0 0 127 0" result="hardAlpha"/>
<feOffset dy="4"/>
<feGaussianBlur stdDeviation="2"/>
<feComposite in2="hardAlpha" operator="out"/>
<feColorMatrix type="matrix" values="0 0 0 0 0 0 0 0 0 0 0 0 0 0 0 0 0 0 0.25 0"/>
<feBlend mode="normal" in2="BackgroundImageFix" result="effect1_dropShadow_206_2"/>
<feBlend mode="normal" in="SourceGraphic" in2="effect1_dropShadow_206_2" result="shape"/>
</filter>
<filter id="filter2_d_206_2" x="348.224" y="141.472" width="1022.88" height="145.728" filterUnits="userSpaceOnUse" color-interpolation-filters="sRGB">
<feFlood flood-opacity="0" result="BackgroundImageFix"/>
<feColorMatrix in="SourceAlpha" type="matrix" values="0 0 0 0 0 0 0 0 0 0 0 0 0 0 0 0 0 0 127 0" result="hardAlpha"/>
<feOffset dy="4"/>
<feGaussianBlur stdDeviation="2"/>
<feComposite in2="hardAlpha" operator="out"/>
<feColorMatrix type="matrix" values="0 0 0 0 0 0 0 0 0 0 0 0 0 0 0 0 0 0 0.25 0"/>
<feBlend mode="normal" in2="BackgroundImageFix" result="effect1_dropShadow_206_2"/>
<feBlend mode="normal" in="SourceGraphic" in2="effect1_dropShadow_206_2" result="shape"/>
</filter>
<linearGradient id="paint0_linear_206_2" x1="209" y1="94" x2="209" y2="394" gradientUnits="userSpaceOnUse">
<stop stop-color="#6D83F5"/>
<stop offset="1" stop-color="#798364"/>
</linearGradient>
<linearGradient id="paint1_linear_206_2" x1="210.185" y1="155.905" x2="210.185" y2="332.776" gradientUnits="userSpaceOnUse">
<stop stop-color="#7C8DE7"/>
<stop offset="1" stop-color="#404C8F"/>
</linearGradient>
<linearGradient id="paint2_linear_206_2" x1="348" y1="210" x2="1457" y2="210" gradientUnits="userSpaceOnUse">
<stop stop-color="#758AF4"/>
<stop offset="1" stop-color="#404C8F"/>
</linearGradient>
<linearGradient id="paint3_linear_206_2" x1="359" y1="368" x2="1457" y2="368" gradientUnits="userSpaceOnUse">
<stop stop-color="#51AB85"/>
<stop offset="1" stop-color="#1D2723"/>
</linearGradient>
</defs>
</svg>
